<?xml version="1.0" encoding="utf-8"?>
<!-- Generator: Adobe Illustrator 25.0.0, SVG Export Plug-In . SVG Version: 6.00 Build 0)  -->
<svg version="1.1" id="katman_1" xmlns="http://www.w3.org/2000/svg" xmlns:xlink="http://www.w3.org/1999/xlink" x="0px" y="0px"
	 viewBox="0 0 560 400" style="enable-background:new 0 0 560 400;" xml:space="preserve">
<style type="text/css">
	.st0{fill:#D4A10F;}
	.st1{fill-rule:evenodd;clip-rule:evenodd;fill:#00529C;}
</style>
<g transform="matrix(.754552 0 0 .754552 100 139.153)">
	<path class="st0" d="M-22.7,187.4c-6.5-2.1-12.6-8.2-16.9-16.7c-1-2-1.8-3.7-1.8-3.9c0-0.5,3-2.2,3.2-1.7c0.1,0.2,0.9,1.6,1.9,3.2
		c7.4,11.8,17.4,13.1,22.2,2.9c1.3-2.9,2-5.5,2.7-11.4c1.1-8.4,2.8-18.6,3.6-21.5c2.1-8,6.7-14.4,18.1-25.2
		c10-9.4,14.8-16.7,15.3-23.4c0.1-1.3,0.1-2.4,0-2.4c-0.1,0-1.2,0.9-2.4,1.9c-1.2,1-4,3.3-6.2,4.9c-5.7,4.2-8.1,6.4-9.8,8.7
		c-0.8,1.1-1.6,2-1.7,2c-0.1,0-0.9-1.9-1.6-4.1c-1.1-3.3-1.4-4.6-1.4-6.4c0-2.7,0.5-3.7,3.2-7.1c3.5-4.4,5.4-9.3,5.4-14.4
		c0-5.5-2.4-10.2-9.4-18.7C-1.5,50.3-10.6,40.6-11,40.6c-0.1,0-0.2,2.2-0.2,4.8c0.2,10.9-1.9,19.3-7.9,31.3
		c-3.8,7.7-4.6,9.5-6.1,14.1c-1.6,4.9-2.1,7.5-2.3,12.3l-0.2,4.3l-1.4,1.4c-0.8,0.8-1.5,1.3-1.6,1.2c-0.5-0.5-0.9-7-0.7-11.1
		c0.3-7.6,2.1-14.5,6.5-24.8c8.4-19.6,10.6-26.8,10.1-33.8c-0.2-2.9-0.4-3.8-3.3-11.5c-2.4-6.6-1.8-13,2-19c1-1.5,1.1-1.9,0.8-2.6
		c-0.2-0.5-0.9-2.2-1.7-3.8c-2.2-5-2.8-7.6-2.8-13.2c0-5.2,0.4-7.4,1.9-10.7c1.3-2.9,5-6.3,6.9-6.3c1.3,0,1.1,0.6-0.7,1.9
		c-3.8,2.9-5.2,7.9-3.9,14.2c1.4,6.6,4.1,11.2,13,22.4C18.8,38,29.4,53.4,37.7,69.9c5.3,10.5,7.4,16,9.6,24.7c2.3,9,3,16.5,2.3,24.1
		c-1.4,16.6-8.1,28.2-19.5,33.9c-7.8,4-18.1,4.6-27.4,1.8c-3.3-1-3.2-0.8-2.5-5.4c0.8-4.6,1.3-6.4,2-6.3c0.2,0,1.8,0.3,3.5,0.6
		c7.5,1.4,15.6-0.3,21.7-4.5c2-1.3,5.6-4.8,7.4-7.1c3-3.9,5.4-9,6.8-14.6c1-4.1,1.4-12.5,0.8-16.9c-0.5-3.3-2.2-9-4.1-13.7
		C31.7,70.1,19.9,52.4-5.4,20.7c-1.1-1.4-3.2-4.2-4.7-6.1c-1.4-1.9-2.7-3.5-2.8-3.5c-0.4,0-1.9,2.5-2.5,4.2
		c-0.4,1.2-0.5,2.4-0.4,4.2c0.3,4.9,2.3,7.9,12.6,18.6C3,44.6,6.6,48.9,9.7,53.6c5.8,8.8,7.9,17.7,5.9,25c-0.2,0.7-0.3,1.4-0.2,1.4
		c0.4,0.4,6.7-5.2,8.6-7.8c0.6-0.9,1.3-1.4,1.4-1.3c0.4,0.4,2.4,8.6,3.2,12.9c1.1,5.9,1.4,10.2,1.2,14.2c-0.2,4.3-0.8,6.4-3,10.7
		c-2.2,4.3-5.2,8-13.8,16.9C4.5,134.5,1.5,138.1,0.4,141c-1.1,2.9-2.4,10-3.1,17.2c-1.1,10.6-2.1,18-2.9,20.6
		c-1.2,4-3.2,6.7-6.2,8.1c-1.9,0.9-2.5,1.1-5.3,1.2C-19.7,188.2-20.6,188.1-22.7,187.4L-22.7,187.4z M9.9,173.9
		c-2.5-1.2-4.2-3.9-6.1-9.2c-0.7-1.8-0.8-2.6-0.5-2.9c0.6-0.6,1.2,0.2,2,2.3c1,2.6,2,4.4,3,4.9c0.7,0.4,1,0.4,1.8,0
		c0.8-0.4,1-0.7,1.1-1.7c0.2-2.3,1.4-1.1,2.5,2.3c0.7,2.4,0.7,2.8-0.4,3.9C11.9,174.8,11.6,174.8,9.9,173.9z M-16,165.2l-7.2-5.9
		l-6.9,8.4l7.2,5.9L-16,165.2z M-36.2,27.4c0,3.5,2.9,6.5,6.5,6.5c1.6,0,3.1-0.6,4.2-1.6l0.9-0.6l-0.1,2.3c-0.2,3-1.3,5.2-4,8.2
		c-3,3.2-5.9,5.3-15.4,11c-13,7.8-17.3,10.9-22,15.4c-6,5.8-10.2,12.8-12,20.2c-2.5,10-1.7,19.7,2.5,30.8c1.2,3.2,1.2,3.4,1.4,8.8
		c0.5,14.4,4.1,24.2,11.5,31.6c3.8,3.8,7.2,5.6,11.8,6.1c1.1,0.1,2.8,0.2,3.7,0.1c10.8-0.9,15.5-9.9,17.9-33.8
		c0.3-3.1,0.7-6.1,0.9-6.7c0.2-0.7,2.4-2.9,6.6-6.7c6.6-6,7.9-7.7,7.9-10.3c0-1.6-1.3-10.8-1.6-11.1c-0.1-0.1-0.9,0.7-1.7,1.8
		c-1.3,1.8-5.6,6-11.1,10.8c-3.6,3.2-4.3,4.9-5.6,13.6c-2.2,15.3-4.9,23.4-9.5,28c-4.2,4.2-11.1,5.3-16.5,2.6
		c-5.5-2.8-9.6-11.2-10.1-20.7l-0.2-3.7l2.5,2.3c3.3,3.1,6,4.5,8.9,4.5c2.7,0,3.6-0.3,5-1.5c2.1-1.8,3.1-4.8,3.1-9.2
		c0-8.8-4.7-19.3-9.9-22c-2.1-1.1-4.8-1-6.8,0.3c-1.9,1.2-3.8,3.8-4.8,6.7c-0.4,1.2-0.9,2.2-1.1,2.3c-0.6,0.3-1.2-3.7-1.2-8.3
		c0-3.4,0.2-5.4,0.7-7.8c1.9-9.2,5.5-15.7,12.7-22.8c4.8-4.8,9.8-8.6,21-16c8.7-5.7,12.4-8.8,14.4-12c0.9-1.4,1.1-1.6,1.2-1
		c0.3,2.2-2.3,8.9-8.3,21.3c-4.9,10.2-6.5,13.8-8.9,20.6c-3.1,8.6-5.1,16.3-6.2,24.6c-0.7,5.3-1,16.3-0.5,23.2
		c0.4,6.2,1.8,15.9,2.3,16.5c0.2,0.2,0.7,0,1.4-0.8l1.1-1.1l-0.6-3.6c-2.2-13.2-1.3-27.2,2.4-41.6c2.7-10.2,5.9-18.3,13.5-34.1
		c6.7-13.9,7.9-18.6,7.6-29.8c-0.3-9.3-1.5-14.7-4-17.5c-1.4-1.5-2.8-2.3-4.7-2.3C-33.7,20.8-36.2,23.8-36.2,27.4L-36.2,27.4z
		 M-14.4,150.5l-7.2-5.9l-6.9,8.4l7.2,5.9L-14.4,150.5z M-13.9,143.9c-4.1-4-8.2-9.7-11.2-15.8l-1.2-2.5l1.4-1.5
		c0.8-0.8,1.6-1.5,1.8-1.5s0.9,0.8,1.6,1.9c1.6,2.3,7,7.9,10,10.4c2,1.6,2.2,1.9,2,2.7c-0.1,0.5-0.6,2.5-1,4.5
		c-0.4,2-0.8,3.8-0.9,3.9C-11.5,146.1-12.7,145.1-13.9,143.9L-13.9,143.9z M29.9,126.7l-8.4-4.1l-4.7,9.7l8.4,4L29.9,126.7z
		 M-60.5,114.9c0.6,0,1.2,0.2,1.8,0.5c1.2,0.6,2.9,3.2,2.9,4.3c0,0.5-0.4,1.6-1,2.5c-0.7,1.3-1.3,1.9-2.7,2.5
		c-2.3,1.1-5,1.2-7.2,0.1c-2.5-1.2-2.6-1.4-1.5-3.7C-66.3,117.3-63.2,114.9-60.5,114.9z M2.5,109.1l-8.4-4l-4.7,9.7l8.4,4L2.5,109.1
		z M-57.8,93.2c-1.2-1.2-1.5-2.8-1.1-5.6c0.2-1.6,0.6-3,1.5-4.5c2.1-4.1,8.9-10,8.9-7.8c0,0.1-1.4,1.6-3,3.4
		c-4.5,4.7-6,8.1-4.4,10.1c1.1,1.4,3.2,1,3.2-0.6c0-0.9,1.1-2.3,1.6-1.9c0.5,0.3,0.5,1.4-0.1,3.3C-52.6,93.6-55.7,95.4-57.8,93.2
		L-57.8,93.2z M-12.9,88.7c-0.8-3-0.6-3.4,7.4-12c3.3-3.5,6.4-7,6.9-7.7c1-1.3,1-1.3,1.5,1c0.2,1,0.2,1.6-0.2,2.5
		c-0.3,0.6-3.2,4.1-6.5,7.7c-3.3,3.6-6.5,7.2-7.1,8.1c-0.6,0.9-1.2,1.6-1.4,1.6C-12.5,89.9-12.7,89.4-12.9,88.7z M-31.6,38.5
		c0,3.6-2.9,6.5-6.5,6.5c-3.6,0-6.5-2.9-6.5-6.5s2.9-6.5,6.5-6.5C-34.5,32-31.6,34.9-31.6,38.5z"/>
	<path class="st1" d="M199.5,85.2v62.4c0,0,1,9.6-5.6,16.8c-9.2,10-25.5,1.6-25.5,1.6l3.5-12.7c0,0,2,1.4,4.9,1.4
		c3.8,0,7.6-4.2,7.6-9l-0.2-60.5L199.5,85.2z M336.4,85.4h38.9v12.8h-23.9V110h20.2v12.3h-20.3v11.5h26v12.5h-40.7V85.4z
		 M390.6,85.4h38.9v12.8h-23.9V110h20.2v12.3h-20.3v11.5h26v12.5h-40.7V85.4z M321.8,100.7l-22,32.3h22.6v13.2h-43.1v-15.4
		l22.5-32.8h-21.6V85.4h41.6L321.8,100.7z M86.3,85.3h17.2l20.9,60.7h-16.6l-3.1-10.9H84.4L80.7,146H65L86.3,85.3z M473.6,85.4
		c9.4,0,14.8,8.3,14.8,16.7s-4.2,11-4.2,11s-2.9,2.3-5.2,3.9c2.2,0,4.2,4.9,4.2,4.9l9.4,24.1l-15.7,0c0,0-7.3-18.9-9.1-21.1
		c-1.6-1.9-4.1-1.5-7.7-1.5V146h-15.2V85.4L473.6,85.4z M230.6,85.3h17.2l20.9,60.7H252l-3.1-10.9h-20.3L225,146h-15.7L230.6,85.3z
		 M518.6,85.3h17.2l20.9,60.7H540l-3.1-10.9h-20.3L513,146h-15.7L518.6,85.3z M135.1,85.4h14.9v47.7h19.4v12.8H135L135.1,85.4z
		 M100.4,121l-5.7-18l-5.8,18H100.4z M244.6,121l-5.7-18l-5.8,18H244.6z M532.6,121l-5.7-18l-5.8,18H532.6z M467.3,98.3H460v12h7.5
		c2.8,0,5.4-2.8,5.4-5.9C472.9,101.2,470.1,98.3,467.3,98.3z"/>
</g>
</svg>
