<?xml version="1.0" encoding="UTF-8" standalone="no"?>
<svg
   xmlns:dc="http://purl.org/dc/elements/1.1/"
   xmlns:cc="http://creativecommons.org/ns#"
   xmlns:rdf="http://www.w3.org/1999/02/22-rdf-syntax-ns#"
   xmlns:svg="http://www.w3.org/2000/svg"
   xmlns="http://www.w3.org/2000/svg"
   xmlns:sodipodi="http://sodipodi.sourceforge.net/DTD/sodipodi-0.dtd"
   xmlns:inkscape="http://www.inkscape.org/namespaces/inkscape"
   width="100"
   height="14"
   viewBox="0 0 100 14"
   version="1.1"
   id="svg198"
   sodipodi:docname="logo.svg"
   inkscape:version="0.92.4 (5da689c313, 2019-01-14)">
  <title
     id="title1009">TRT World logo</title>
  <metadata
     id="metadata202">
    <rdf:RDF>
      <cc:Work
         rdf:about="">
        <dc:format>image/svg+xml</dc:format>
        <dc:type
           rdf:resource="http://purl.org/dc/dcmitype/StillImage" />
        <dc:title>TRT World logo</dc:title>
        <cc:license
           rdf:resource="http://scripts.sil.org/OFL" />
      </cc:Work>
      <cc:License
         rdf:about="http://scripts.sil.org/OFL">
        <cc:permits
           rdf:resource="http://scripts.sil.org/pub/OFL/Reproduction" />
        <cc:permits
           rdf:resource="http://scripts.sil.org/pub/OFL/Distribution" />
        <cc:permits
           rdf:resource="http://scripts.sil.org/pub/OFL/Embedding" />
        <cc:permits
           rdf:resource="http://scripts.sil.org/pub/OFL/DerivativeWorks" />
        <cc:requires
           rdf:resource="http://scripts.sil.org/pub/OFL/Notice" />
        <cc:requires
           rdf:resource="http://scripts.sil.org/pub/OFL/Attribution" />
        <cc:requires
           rdf:resource="http://scripts.sil.org/pub/OFL/ShareAlike" />
        <cc:requires
           rdf:resource="http://scripts.sil.org/pub/OFL/DerivativeRenaming" />
        <cc:requires
           rdf:resource="http://scripts.sil.org/pub/OFL/BundlingWhenSelling" />
      </cc:License>
    </rdf:RDF>
  </metadata>
  <sodipodi:namedview
     pagecolor="#ffffff"
     bordercolor="#666666"
     borderopacity="1"
     objecttolerance="10"
     gridtolerance="10"
     guidetolerance="10"
     inkscape:pageopacity="0"
     inkscape:pageshadow="2"
     inkscape:window-width="1366"
     inkscape:window-height="705"
     id="namedview200"
     showgrid="false"
     inkscape:showpageshadow="false"
     showguides="false"
     inkscape:zoom="1"
     inkscape:cx="58.908677"
     inkscape:cy="7.8876245"
     inkscape:window-x="-8"
     inkscape:window-y="-8"
     inkscape:window-maximized="1"
     inkscape:current-layer="svg198" />
  <defs
     id="defs160">
    <linearGradient
       id="a"
       x1="129.55873"
       x2="144.9966"
       y1="15.006017"
       y2="15.006017"
       gradientUnits="userSpaceOnUse">
      <stop
         offset="0%"
         stop-color="#43C4DC"
         id="stop2" />
      <stop
         offset="6.591%"
         stop-color="#3EBCD8"
         id="stop4" />
      <stop
         offset="27.03%"
         stop-color="#29ADD0"
         id="stop6" />
      <stop
         offset="40.5%"
         stop-color="#20A8CE"
         id="stop8" />
      <stop
         offset="53.08%"
         stop-color="#24A4CD"
         id="stop10" />
      <stop
         offset="71.41%"
         stop-color="#2C9ACA"
         id="stop12" />
      <stop
         offset="93.18%"
         stop-color="#3789C5"
         id="stop14" />
      <stop
         offset="100%"
         stop-color="#3983C4"
         id="stop16" />
    </linearGradient>
    <radialGradient
       id="b"
       cx="140.84538"
       cy="12.148597"
       r="12.597117"
       fx="140.84538"
       fy="12.148597"
       gradientUnits="userSpaceOnUse">
      <stop
         offset="0%"
         stop-color="#0D91AE"
         stop-opacity="0"
         id="stop19" />
      <stop
         offset="81.39%"
         stop-color="#0D91AE"
         stop-opacity=".867"
         id="stop21" />
      <stop
         offset="93.92%"
         stop-color="#0D91AE"
         id="stop23" />
    </radialGradient>
    <radialGradient
       id="c"
       cx="132.82823"
       cy="10.380394"
       r="14.194995"
       fx="132.82823"
       fy="10.380394"
       gradientUnits="userSpaceOnUse">
      <stop
         offset="1.871%"
         stop-color="#0D91AE"
         stop-opacity="0"
         id="stop26" />
      <stop
         offset="32.48%"
         stop-color="#0D90AE"
         stop-opacity=".312"
         id="stop28" />
      <stop
         offset="57.39%"
         stop-color="#0D8AAF"
         stop-opacity=".566"
         id="stop30" />
      <stop
         offset="80.24%"
         stop-color="#0E81B0"
         stop-opacity=".799"
         id="stop32" />
      <stop
         offset="100%"
         stop-color="#0F76B1"
         id="stop34" />
    </radialGradient>
    <radialGradient
       id="d"
       cx="153.18262"
       cy="14.803794"
       r="17.754137"
       fx="153.18262"
       fy="14.803794"
       gradientTransform="scale(0.91323679,1.0950063)"
       gradientUnits="userSpaceOnUse">
      <stop
         offset="0%"
         stop-color="#FFF"
         id="stop37" />
      <stop
         offset="17.18%"
         stop-color="#F7F7F6"
         id="stop39" />
      <stop
         offset="34.77%"
         stop-color="#E8E7E6"
         id="stop41" />
      <stop
         offset="52.54%"
         stop-color="#D2D0D0"
         id="stop43" />
      <stop
         offset="70.46%"
         stop-color="#B7B5B5"
         id="stop45" />
      <stop
         offset="88.3%"
         stop-color="#979696"
         id="stop47" />
      <stop
         offset="100%"
         stop-color="#828282"
         id="stop49" />
    </radialGradient>
    <radialGradient
       id="e"
       cx="141.56561"
       cy="5.8073974"
       r="27.140417"
       fx="141.56561"
       fy="5.8073974"
       gradientTransform="scale(0.91323235,1.0950116)"
       gradientUnits="userSpaceOnUse">
      <stop
         offset="0%"
         stop-color="#FFF"
         id="stop52" />
      <stop
         offset="17.18%"
         stop-color="#F7F7F6"
         id="stop54" />
      <stop
         offset="34.77%"
         stop-color="#E8E7E6"
         id="stop56" />
      <stop
         offset="52.54%"
         stop-color="#D2D0D0"
         id="stop58" />
      <stop
         offset="70.46%"
         stop-color="#B7B5B5"
         id="stop60" />
      <stop
         offset="88.3%"
         stop-color="#979696"
         id="stop62" />
      <stop
         offset="100%"
         stop-color="#828282"
         id="stop64" />
    </radialGradient>
    <linearGradient
       id="f"
       x1="81.908005"
       x2="1.5992914"
       y1="8.6247063"
       y2="19.251705"
       gradientTransform="scale(0.96653071,1.0346283)"
       gradientUnits="userSpaceOnUse">
      <stop
         offset="0%"
         stop-color="#43C4DC"
         id="stop67" />
      <stop
         offset="6.591%"
         stop-color="#3EBCD8"
         id="stop69" />
      <stop
         offset="27.03%"
         stop-color="#29ADD0"
         id="stop71" />
      <stop
         offset="40.5%"
         stop-color="#20A8CE"
         id="stop73" />
      <stop
         offset="53.08%"
         stop-color="#24A4CD"
         id="stop75" />
      <stop
         offset="71.41%"
         stop-color="#2C9ACA"
         id="stop77" />
      <stop
         offset="93.18%"
         stop-color="#3789C5"
         id="stop79" />
      <stop
         offset="100%"
         stop-color="#3983C4"
         id="stop81" />
    </linearGradient>
    <linearGradient
       id="g"
       x1="82.209564"
       x2="0.56353486"
       y1="4.0976305"
       y2="14.55025"
       gradientTransform="scale(0.95070428,1.0518518)"
       gradientUnits="userSpaceOnUse">
      <stop
         offset="0%"
         stop-color="#43C4DC"
         id="stop84" />
      <stop
         offset="6.591%"
         stop-color="#3EBCD8"
         id="stop86" />
      <stop
         offset="27.03%"
         stop-color="#29ADD0"
         id="stop88" />
      <stop
         offset="40.5%"
         stop-color="#20A8CE"
         id="stop90" />
      <stop
         offset="53.08%"
         stop-color="#24A4CD"
         id="stop92" />
      <stop
         offset="71.41%"
         stop-color="#2C9ACA"
         id="stop94" />
      <stop
         offset="93.18%"
         stop-color="#3789C5"
         id="stop96" />
      <stop
         offset="100%"
         stop-color="#3983C4"
         id="stop98" />
    </linearGradient>
    <linearGradient
       id="h"
       x1="84.425255"
       x2="2.7761736"
       y1="11.070866"
       y2="21.523874"
       gradientTransform="scale(0.95070609,1.0518498)"
       gradientUnits="userSpaceOnUse">
      <stop
         offset="0%"
         stop-color="#43C4DC"
         id="stop101" />
      <stop
         offset="6.591%"
         stop-color="#3EBCD8"
         id="stop103" />
      <stop
         offset="27.03%"
         stop-color="#29ADD0"
         id="stop105" />
      <stop
         offset="40.5%"
         stop-color="#20A8CE"
         id="stop107" />
      <stop
         offset="53.08%"
         stop-color="#24A4CD"
         id="stop109" />
      <stop
         offset="71.41%"
         stop-color="#2C9ACA"
         id="stop111" />
      <stop
         offset="93.18%"
         stop-color="#3789C5"
         id="stop113" />
      <stop
         offset="100%"
         stop-color="#3983C4"
         id="stop115" />
    </linearGradient>
    <linearGradient
       id="i"
       x1="30.507351"
       x2="43.756878"
       y1="36.143101"
       y2="10.700475"
       gradientTransform="scale(0.96653071,1.0346283)"
       gradientUnits="userSpaceOnUse">
      <stop
         offset="0%"
         stop-color="#0F76B1"
         id="stop118" />
      <stop
         offset="26.24%"
         stop-color="#0F7AB1"
         stop-opacity=".738"
         id="stop120" />
      <stop
         offset="66%"
         stop-color="#0E85B0"
         stop-opacity=".34"
         id="stop122" />
      <stop
         offset="100%"
         stop-color="#0D91AE"
         stop-opacity="0"
         id="stop124" />
    </linearGradient>
    <linearGradient
       id="j"
       x1="3.1210334"
       x2="16.591152"
       y1="23.450935"
       y2="-1.5741963"
       gradientTransform="scale(0.95070428,1.0518518)"
       gradientUnits="userSpaceOnUse">
      <stop
         offset="0%"
         stop-color="#0F76B1"
         id="stop127" />
      <stop
         offset="26.24%"
         stop-color="#0F7AB1"
         stop-opacity=".738"
         id="stop129" />
      <stop
         offset="66%"
         stop-color="#0E85B0"
         stop-opacity=".34"
         id="stop131" />
      <stop
         offset="100%"
         stop-color="#0D91AE"
         stop-opacity="0"
         id="stop133" />
    </linearGradient>
    <linearGradient
       id="k"
       x1="49.174179"
       x2="62.644798"
       y1="43.2075"
       y2="18.181433"
       gradientTransform="scale(0.95070609,1.0518498)"
       gradientUnits="userSpaceOnUse">
      <stop
         offset="0%"
         stop-color="#0F76B1"
         id="stop136" />
      <stop
         offset="26.24%"
         stop-color="#0F7AB1"
         stop-opacity=".738"
         id="stop138" />
      <stop
         offset="66%"
         stop-color="#0E85B0"
         stop-opacity=".34"
         id="stop140" />
      <stop
         offset="100%"
         stop-color="#0D91AE"
         stop-opacity="0"
         id="stop142" />
    </linearGradient>
    <linearGradient
       id="l"
       x1="48.168571"
       x2="41.3596"
       y1="33.071442"
       y2="17.599709"
       gradientTransform="scale(0.96653071,1.0346283)"
       gradientUnits="userSpaceOnUse">
      <stop
         offset="6.085%"
         stop-color="#0D91AE"
         id="stop145" />
      <stop
         offset="100%"
         stop-color="#0D91AE"
         stop-opacity="0"
         id="stop147" />
    </linearGradient>
    <linearGradient
       id="m"
       x1="29.82604"
       x2="22.903763"
       y1="39.504036"
       y2="24.285912"
       gradientTransform="scale(0.95070428,1.0518518)"
       gradientUnits="userSpaceOnUse">
      <stop
         offset="6.085%"
         stop-color="#0D91AE"
         id="stop150" />
      <stop
         offset="100%"
         stop-color="#0D91AE"
         stop-opacity="0"
         id="stop152" />
    </linearGradient>
    <linearGradient
       id="n"
       x1="78.48069"
       x2="71.558159"
       y1="21.842533"
       y2="6.6241117"
       gradientTransform="scale(0.95070609,1.0518498)"
       gradientUnits="userSpaceOnUse">
      <stop
         offset="6.085%"
         stop-color="#0D91AE"
         id="stop155" />
      <stop
         offset="100%"
         stop-color="#0D91AE"
         stop-opacity="0"
         id="stop157" />
    </linearGradient>
  </defs>
  <g
     id="g196"
     transform="matrix(0.4374076,0,0,0.4374076,0.16632601,0.59650792)"
     style="fill:none;fill-rule:evenodd">
    <path
       d="m 119.714,0.893 c -1.214,0 -2.285,0.821 -2.643,1.964 l -5.25,17.607 -6.928,-19.571 h -2.929 A 2.04,2.04 0 0 0 100.036,2.25 L 93.57,20.607 88.106,2.357 C 87.857,1.5 87.036,0.893 86.18,0.893 h -4.11 l 8.822,28.178 h 2.536 A 2.743,2.743 0 0 0 96,27.286 l 6.679,-17.643 7.357,19.428 h 3.071 c 0.822,0 1.536,-0.535 1.786,-1.321 L 123.32,0.857 h -3.607 v 0.036 z m 67.179,0 h -3.679 c -0.964,0 -1.714,0.786 -1.714,1.714 v 26.464 h 15.679 c 1.535,0 2.75,-1.25 2.75,-2.75 V 24 H 186.857 V 0.893 Z m -14.679,19.178 c 3.786,-1.75 5.857,-5.107 5.857,-9.464 0,-4.678 -3.214,-9.714 -10.285,-9.714 h -11.857 c -0.965,0 -1.715,0.786 -1.715,1.714 v 26.464 h 2.607 c 1.536,0 2.75,-1.25 2.75,-2.75 v -5.607 h 6.143 l 6.929,8.357 h 6.428 l -7.392,-9 z m -4.178,-4.428 h -8.465 V 6 H 168 c 1.821,0 2.929,0.893 3.536,1.643 0.714,0.857 1.107,2.071 1.107,3.178 0.036,1.965 -1.607,4.822 -4.607,4.822 z M 212,0.893 h -8.143 c -0.964,0 -1.714,0.786 -1.714,1.714 V 29.071 H 212 c 10.679,0 15.464,-7.107 15.464,-14.142 C 227.464,7.964 222.68,0.893 212,0.893 Z M 212.607,24 H 207.5 V 5.964 h 5.107 c 2.964,0 5.429,1 7.143,2.929 1.464,1.607 2.286,3.821 2.286,6.071 0.035,4.357 -3.607,9.036 -9.429,9.036 z"
       id="path162"
       inkscape:connector-curvature="0"
       style="fill:#eaeaea" />
    <circle
       cx="137.286"
       cy="15"
       r="7.7140002"
       id="circle164"
       style="fill:url(#a)" />
    <circle
       cx="137.286"
       cy="15"
       r="7.7140002"
       id="circle166"
       style="fill:url(#b)" />
    <circle
       cx="137.286"
       cy="15"
       r="7.7140002"
       id="circle168"
       style="fill:url(#c)" />
    <path
       d="M 142.393,0.821 141.214,0.5 C 134.857,-1.214 128,5.75 127.43,13.893 a 9.934,9.934 0 0 1 2.785,-5.857 9.815,9.815 0 0 1 7.036,-2.929 c 2.821,0 5.321,1.179 7.143,3.036 a 9.844,9.844 0 0 1 2.75,6.857 c 0,0.357 -0.036,0.75 -0.072,1.107 -0.571,8.143 -7.428,15.107 -13.785,13.393 l -1.179,-0.321 c 1.572,0.535 3.322,0.821 5.143,0.821 8.571,0 15,-6.464 15,-15 0.036,-6.714 -3.964,-12.143 -9.857,-14.179 z"
       id="path170"
       style="fill:url(#d)"
       inkscape:connector-curvature="0" />
    <path
       d="m 137.286,24.893 c -3.643,0 -6.822,-1.929 -8.536,-4.893 a 9.887,9.887 0 0 1 -1.357,-5 c 0,-0.357 0.036,-0.75 0.071,-1.107 C 128.036,5.75 134.893,-1.214 141.25,0.5 l 1.179,0.321 C 140.857,0.286 139.107,0 137.286,0 c -8.572,0 -15,6.464 -15,15 0,6.75 4,12.179 9.857,14.179 l 1.178,0.321 c 6.358,1.714 13.215,-5.25 13.786,-13.393 a 9.874,9.874 0 0 1 -9.821,8.786 z"
       id="path172"
       style="fill:url(#e)"
       inkscape:connector-curvature="0" />
    <path
       d="m 41.643,0.179 h -12.5 a 1.982,1.982 0 0 0 -1.964,1.964 v 26.25 H 32 a 2.622,2.622 0 0 0 2.607,-2.607 v -4.357 h 6 l 4.857,6.928 h 8.072 l -5.822,-8.25 0.679,-0.428 c 2.714,-1.715 4.571,-5.286 4.571,-8.929 0,-7.25 -5.893,-10.571 -11.321,-10.571 z m 0.071,14.428 H 34.571 V 6.93 h 7.143 c 2.5,0 3.822,1.928 3.822,3.821 0,1.5 -1.036,3.857 -3.822,3.857 z"
       transform="translate(0,0.714)"
       id="path174"
       style="fill:url(#f)"
       inkscape:connector-curvature="0" />
    <path
       d="m 9.036,28.393 h 4.821 a 2.622,2.622 0 0 0 2.607,-2.607 V 7.036 h 6.822 c 1.214,0 2.214,-1 2.214,-2.215 V 0.18 H 1.429 C 0.643,0.179 0,0.82 0,1.607 V 7 h 9.036 z"
       transform="translate(0,0.714)"
       id="path176"
       style="fill:url(#g)"
       inkscape:connector-curvature="0" />
    <path
       d="m 62.929,28.393 h 4.821 a 2.622,2.622 0 0 0 2.607,-2.607 V 7 h 6.822 c 1.214,0 2.214,-1 2.214,-2.214 V 0.179 H 55.32 c -0.785,0 -1.428,0.642 -1.428,1.428 V 7 h 9.036 v 21.393 z"
       transform="translate(0,0.714)"
       id="path178"
       style="fill:url(#h)"
       inkscape:connector-curvature="0" />
    <g
       id="g186">
      <path
         d="m 41.643,0.179 h -12.5 a 1.982,1.982 0 0 0 -1.964,1.964 v 26.25 H 32 a 2.622,2.622 0 0 0 2.607,-2.607 v -4.357 h 6 l 4.857,6.928 h 8.072 l -5.822,-8.25 0.679,-0.428 c 2.714,-1.715 4.571,-5.286 4.571,-8.929 0,-7.25 -5.893,-10.571 -11.321,-10.571 z m 0.071,14.428 H 34.571 V 6.93 h 7.143 c 2.5,0 3.822,1.928 3.822,3.821 0,1.5 -1.036,3.857 -3.822,3.857 z"
         transform="translate(0,0.714)"
         id="path180"
         style="fill:url(#i)"
         inkscape:connector-curvature="0" />
      <path
         d="m 9.036,28.393 h 4.821 a 2.622,2.622 0 0 0 2.607,-2.607 V 7.036 h 6.822 c 1.214,0 2.214,-1 2.214,-2.215 V 0.18 H 1.429 C 0.643,0.179 0,0.82 0,1.607 V 7 h 9.036 z"
         transform="translate(0,0.714)"
         id="path182"
         style="fill:url(#j)"
         inkscape:connector-curvature="0" />
      <path
         d="m 62.929,28.393 h 4.821 a 2.622,2.622 0 0 0 2.607,-2.607 V 7 h 6.822 c 1.214,0 2.214,-1 2.214,-2.214 V 0.179 H 55.32 c -0.785,0 -1.428,0.642 -1.428,1.428 V 7 h 9.036 v 21.393 z"
         transform="translate(0,0.714)"
         id="path184"
         style="fill:url(#k)"
         inkscape:connector-curvature="0" />
    </g>
    <g
       id="g194">
      <path
         d="m 41.643,0.179 h -12.5 a 1.982,1.982 0 0 0 -1.964,1.964 v 26.25 H 32 a 2.622,2.622 0 0 0 2.607,-2.607 v -4.357 h 6 l 4.857,6.928 h 8.072 l -5.822,-8.25 0.679,-0.428 c 2.714,-1.715 4.571,-5.286 4.571,-8.929 0,-7.25 -5.893,-10.571 -11.321,-10.571 z m 0.071,14.428 H 34.571 V 6.93 h 7.143 c 2.5,0 3.822,1.928 3.822,3.821 0,1.5 -1.036,3.857 -3.822,3.857 z"
         transform="translate(0,0.714)"
         id="path188"
         style="fill:url(#l)"
         inkscape:connector-curvature="0" />
      <path
         d="m 9.036,28.393 h 4.821 a 2.622,2.622 0 0 0 2.607,-2.607 V 7.036 h 6.822 c 1.214,0 2.214,-1 2.214,-2.215 V 0.18 H 1.429 C 0.643,0.179 0,0.82 0,1.607 V 7 h 9.036 z"
         transform="translate(0,0.714)"
         id="path190"
         style="fill:url(#m)"
         inkscape:connector-curvature="0" />
      <path
         d="m 62.929,28.393 h 4.821 a 2.622,2.622 0 0 0 2.607,-2.607 V 7 h 6.822 c 1.214,0 2.214,-1 2.214,-2.214 V 0.179 H 55.32 c -0.785,0 -1.428,0.642 -1.428,1.428 V 7 h 9.036 v 21.393 z"
         transform="translate(0,0.714)"
         id="path192"
         style="fill:url(#n)"
         inkscape:connector-curvature="0" />
    </g>
  </g>
</svg>
