<svg xmlns="http://www.w3.org/2000/svg" xmlns:xlink="http://www.w3.org/1999/xlink" version="1.1" width="256" height="256" viewBox="0 0 256 256" xml:space="preserve">

<defs>
</defs>
<g style="stroke: none; stroke-width: 0; stroke-dasharray: none; stroke-linecap: butt; stroke-linejoin: miter; stroke-miterlimit: 10; fill: none; fill-rule: nonzero; opacity: 1;" transform="translate(1.4065934065934016 1.4065934065934016) scale(2.81 2.81)" >
	<path d="M 45 0 C 20.187 0 0 20.187 0 45 c 0 24.813 20.187 45 45 45 c 24.813 0 45 -20.187 45 -45 C 90 20.187 69.813 0 45 0 z M 44.699 87.992 c -7.115 -0.049 -13.822 -1.837 -19.723 -4.956 c 12.973 -8.339 20.043 -20.911 20.992 -37.425 c 6.169 -3.315 12.353 -5.127 18.619 -5.455 C 67.683 60.9 60.997 76.991 44.699 87.992 z M 45.061 43.845 c -5.737 -3.61 -10.327 -8.189 -13.763 -13.698 c 15.56 -13.566 32.28 -15.658 51.066 -6.39 c 3.329 5.831 5.331 12.509 5.596 19.627 C 73.294 36.296 58.873 36.444 45.061 43.845 z M 80.414 20.649 c -18.132 -7.914 -34.986 -5.314 -50.158 7.752 C 26.91 22.428 24.84 15.435 24.065 7.46 C 30.265 3.988 37.403 2 45 2 C 59.676 2 72.652 9.395 80.414 20.649 z M 22.178 8.582 c 1.827 16.549 9.145 28.968 21.782 36.932 c -0.409 7.053 -1.966 13.363 -4.675 18.89 c -18.493 -6 -28.187 -18.747 -31.341 -41.179 C 11.449 17.281 16.343 12.252 22.178 8.582 z M 2 45 c 0 -6.76 1.573 -13.158 4.364 -18.854 c 2.373 14.237 8.769 32.333 31.971 40.046 c -3.514 6.357 -8.634 11.618 -15.338 15.734 C 10.433 74.411 2 60.674 2 45 z M 48.332 87.858 c 15.102 -11.351 21.242 -27.396 18.269 -47.756 c 6.985 -0.009 14.083 1.833 21.383 5.516 C 87.667 67.924 70.286 86.166 48.332 87.858 z" style="stroke: none; stroke-width: 1; stroke-dasharray: none; stroke-linecap: butt; stroke-linejoin: miter; stroke-miterlimit: 10; fill: rgb(0,0,0); fill-rule: nonzero; opacity: 1;" transform=" matrix(1 0 0 1 0 0) " stroke-linecap="round" />
</g>
</svg>